<svg width="122" height="30" viewBox="0 0 122 30" fill="none" xmlns="http://www.w3.org/2000/svg">
<path d="M13.8716 17.3501V20.6725H2.86802V17.3501H13.8716ZM4.25943 0V20.6725H0V0H4.25943ZM12.4375 8.41948V11.6566H2.86802V8.41948H12.4375ZM13.8574 0V3.33656H2.86802V0H13.8574Z" fill="#231F20"/>
<path d="M25.3085 16.3562L30.1785 0H34.9207L27.7222 20.6725H24.5986L25.3085 16.3562ZM20.8219 0L25.6777 16.3562L26.416 20.6725H23.264L16.1082 0H20.8219Z" fill="#231F20"/>
<path d="M51.0293 17.3501V20.6725H40.0257V17.3501H51.0293ZM41.4171 0V20.6725H37.1577V0H41.4171ZM49.5953 8.41948V11.6566H40.0257V8.41948H49.5953ZM51.0151 0V3.33656H40.0257V0H51.0151Z" fill="#231F20"/>
<path d="M70.0906 0V20.6725H65.8312L57.5253 6.81509V20.6725H53.2659V0H57.5253L65.8454 13.8716V0H70.0906Z" fill="#231F20"/>
<path d="M82.834 0V20.6725H78.5888V0H82.834ZM89.1947 0V3.33656H72.3274V0H89.1947Z" fill="#231F20"/>
<path d="M122 0V20.6725H117.74L109.434 6.81509V20.6725H105.175V0H109.434L117.755 13.8716V0H122Z" fill="#231F20"/>
<path d="M101.646 20.7332C101.634 20.6673 101.628 20.5995 101.628 20.5302C101.628 19.8946 102.143 19.3795 102.778 19.3795C102.816 19.3795 102.853 19.3813 102.89 19.3849L102.89 1.41398C102.853 1.41759 102.816 1.41944 102.778 1.41944C102.143 1.41944 101.628 0.904256 101.628 0.268739C101.628 0.199453 101.634 0.131589 101.646 0.0656738L101.195 0.0656738C101.082 0.581887 100.622 0.968187 100.073 0.968187C99.5227 0.968187 99.063 0.581887 98.9496 0.0656737L98.4001 0.0656736C98.2867 0.581887 97.827 0.968187 97.2772 0.968187C96.7274 0.968187 96.2677 0.581887 96.1543 0.0656735L95.6047 0.0656735C95.4914 0.581887 95.0317 0.968187 94.4819 0.968187C93.932 0.968187 93.4724 0.581886 93.359 0.0656734L92.8184 0.0656734C92.8301 0.131588 92.8362 0.199453 92.8362 0.268739C92.8362 0.904255 92.3215 1.41944 91.6866 1.41944C91.5853 1.41944 91.4871 1.40633 91.3935 1.38172L91.3935 19.4172C91.4871 19.3926 91.5853 19.3795 91.6866 19.3795C92.3215 19.3795 92.8362 19.8946 92.8362 20.5302C92.8362 20.5995 92.8301 20.6673 92.8184 20.7332L93.359 20.7332C93.4724 20.217 93.932 19.8307 94.4819 19.8307C95.0317 19.8307 95.4914 20.217 95.6047 20.7332L96.1543 20.7332C96.2677 20.217 96.7274 19.8307 97.2772 19.8307C97.827 19.8307 98.2867 20.217 98.4001 20.7332L98.9496 20.7332C99.063 20.217 99.5227 19.8307 100.073 19.8307C100.622 19.8307 101.082 20.217 101.195 20.7332L101.646 20.7332Z" fill="#FF843E"/>
<path fill-rule="evenodd" clip-rule="evenodd" d="M99.9145 17.1682L99.9145 8.41382L94.4141 8.41382L94.4141 17.1682L99.9145 17.1682ZM100.591 7.73694L93.7378 7.73694L93.7378 17.8451L100.591 17.8451L100.591 7.73694Z" fill="#FFD15C"/>
<path fill-rule="evenodd" clip-rule="evenodd" d="M99.9145 5.97695L99.9145 3.67554L94.4141 3.67554L94.4141 5.97695L99.9145 5.97695ZM100.591 2.99866L93.7378 2.99866L93.7378 6.65384L100.591 6.65384L100.591 2.99866Z" fill="#FFD15C"/>
<path d="M0.55698 24.8488L2.00191 27.447L3.45995 24.8488H3.92521L2.20505 27.8206V29.6194H1.80205V27.8206L0.0786133 24.8488H0.55698Z" fill="black"/>
<path d="M7.23031 27.9025V27.7944C7.23031 27.5366 7.26745 27.2985 7.34171 27.0801C7.41598 26.8616 7.52192 26.6727 7.65953 26.5132C7.79933 26.3538 7.96643 26.2304 8.16084 26.143C8.35524 26.0534 8.57149 26.0087 8.80958 26.0087C9.04986 26.0087 9.2672 26.0534 9.4616 26.143C9.65601 26.2304 9.82311 26.3538 9.9629 26.5132C10.1027 26.6727 10.2097 26.8616 10.284 27.0801C10.3583 27.2985 10.3954 27.5366 10.3954 27.7944V27.9025C10.3954 28.1602 10.3583 28.3983 10.284 28.6167C10.2097 28.833 10.1027 29.0208 9.9629 29.1803C9.82529 29.3398 9.65928 29.4643 9.46488 29.5538C9.27047 29.6412 9.05422 29.6849 8.81613 29.6849C8.57586 29.6849 8.35852 29.6412 8.16411 29.5538C7.96971 29.4643 7.80261 29.3398 7.66281 29.1803C7.52301 29.0208 7.41598 28.833 7.34171 28.6167C7.26745 28.3983 7.23031 28.1602 7.23031 27.9025ZM7.62021 27.7944V27.9025C7.62021 28.0969 7.64643 28.2815 7.69885 28.4562C7.75127 28.6288 7.82773 28.7828 7.9282 28.9182C8.02868 29.0514 8.15319 29.1563 8.30172 29.2327C8.45026 29.3092 8.62173 29.3474 8.81613 29.3474C9.00835 29.3474 9.17764 29.3092 9.32399 29.2327C9.47252 29.1563 9.59703 29.0514 9.69751 28.9182C9.79799 28.7828 9.87335 28.6288 9.92358 28.4562C9.97601 28.2815 10.0022 28.0969 10.0022 27.9025V27.7944C10.0022 27.6021 9.97601 27.4197 9.92358 27.2472C9.87335 27.0746 9.79689 26.9206 9.69423 26.7852C9.59375 26.6498 9.46925 26.5427 9.32071 26.4641C9.17218 26.3855 9.0018 26.3461 8.80958 26.3461C8.61736 26.3461 8.44698 26.3855 8.29845 26.4641C8.1521 26.5427 8.02759 26.6498 7.92493 26.7852C7.82445 26.9206 7.748 27.0746 7.69557 27.2472C7.64533 27.4197 7.62021 27.6021 7.62021 27.7944Z" fill="black"/>
<path d="M16.61 28.8002V26.0742H17.0032V29.6194H16.6264L16.61 28.8002ZM16.6821 28.1449L16.8852 28.1384C16.8852 28.3612 16.859 28.5665 16.8066 28.7544C16.7542 28.9422 16.6723 29.106 16.5609 29.2458C16.4495 29.3856 16.3053 29.4938 16.1284 29.5702C15.9514 29.6467 15.7385 29.6849 15.4895 29.6849C15.3169 29.6849 15.1585 29.6609 15.0144 29.6128C14.8724 29.5626 14.7501 29.4839 14.6474 29.3769C14.5447 29.2699 14.465 29.1312 14.4082 28.9608C14.3536 28.7904 14.3263 28.584 14.3263 28.3415V26.0742H14.7162V28.3481C14.7162 28.5381 14.737 28.6965 14.7785 28.8232C14.8222 28.9499 14.8811 29.0514 14.9554 29.1279C15.0318 29.2043 15.1192 29.2589 15.2175 29.2917C15.3158 29.3245 15.4218 29.3409 15.5353 29.3409C15.8237 29.3409 16.0508 29.2852 16.2168 29.1738C16.385 29.0624 16.5041 28.916 16.574 28.7347C16.6461 28.5512 16.6821 28.3546 16.6821 28.1449Z" fill="black"/>
<path d="M21.5501 26.6607V29.6194H21.1602V26.0742H21.5403L21.5501 26.6607ZM22.805 26.048L22.7952 26.4084C22.7515 26.4018 22.7089 26.3964 22.6674 26.392C22.6259 26.3876 22.5811 26.3855 22.533 26.3855C22.3627 26.3855 22.213 26.4171 22.0842 26.4805C21.9575 26.5416 21.8504 26.6279 21.7631 26.7393C21.6757 26.8485 21.6091 26.9774 21.5632 27.1259C21.5173 27.2723 21.4911 27.4296 21.4846 27.5978L21.3404 27.6535C21.3404 27.4219 21.3644 27.2068 21.4125 27.008C21.4605 26.8092 21.5337 26.6356 21.632 26.487C21.7325 26.3363 21.8581 26.2195 22.0088 26.1364C22.1617 26.0513 22.3408 26.0087 22.5461 26.0087C22.5964 26.0087 22.6455 26.013 22.6936 26.0218C22.7438 26.0283 22.781 26.0371 22.805 26.048Z" fill="black"/>
<path d="M34.3791 29.2753V29.6194H31.6956V29.2753H34.3791ZM31.8169 24.8488V29.6194H31.4138V24.8488H31.8169ZM34.0449 26.9883V27.3324H31.6956V26.9883H34.0449ZM34.3627 24.8488V25.1961H31.6956V24.8488H34.3627Z" fill="black"/>
<path d="M39.234 29.2426L40.3709 26.0742H40.7739L39.4469 29.6194H39.1619L39.234 29.2426ZM38.2051 26.0742L39.3552 29.2524L39.4174 29.6194H39.1291L37.7989 26.0742H38.2051Z" fill="black"/>
<path d="M45.8745 29.6849C45.643 29.6849 45.43 29.6423 45.2356 29.5571C45.0434 29.4719 44.8752 29.3518 44.731 29.1967C44.589 29.0416 44.4787 28.8581 44.4001 28.6462C44.3236 28.4322 44.2854 28.1985 44.2854 27.9451V27.8042C44.2854 27.5311 44.3258 27.2843 44.4067 27.0637C44.4875 26.8431 44.5989 26.6541 44.7409 26.4969C44.8828 26.3396 45.0445 26.2195 45.2258 26.1364C45.4093 26.0513 45.6015 26.0087 45.8024 26.0087C46.0274 26.0087 46.2273 26.0491 46.402 26.1299C46.5768 26.2085 46.7231 26.321 46.8411 26.4674C46.9612 26.6115 47.0519 26.783 47.113 26.9818C47.1742 27.1784 47.2048 27.3957 47.2048 27.6338V27.873H44.5213V27.5388H46.8149V27.4929C46.8105 27.2941 46.7701 27.1085 46.6936 26.9359C46.6194 26.7612 46.508 26.6192 46.3594 26.51C46.2109 26.4008 46.0252 26.3461 45.8024 26.3461C45.6364 26.3461 45.4835 26.3811 45.3437 26.451C45.2061 26.5209 45.0871 26.6214 44.9866 26.7524C44.8883 26.8813 44.8118 27.0353 44.7572 27.2144C44.7048 27.3913 44.6786 27.5879 44.6786 27.8042V27.9451C44.6786 28.1417 44.707 28.3251 44.7638 28.4955C44.8228 28.6637 44.9058 28.8122 45.0128 28.9411C45.122 29.07 45.2509 29.1705 45.3994 29.2426C45.548 29.3146 45.7118 29.3507 45.8909 29.3507C46.1006 29.3507 46.2863 29.3125 46.4479 29.236C46.6095 29.1574 46.7548 29.034 46.8837 28.8658L47.1294 29.0558C47.053 29.1694 46.9569 29.2742 46.8411 29.3703C46.7275 29.4665 46.591 29.5429 46.4315 29.5997C46.2721 29.6565 46.0864 29.6849 45.8745 29.6849Z" fill="black"/>
<path d="M51.4994 26.8311V29.6194H51.1095V26.0742H51.483L51.4994 26.8311ZM51.4109 27.6273L51.2373 27.529C51.2504 27.3193 51.293 27.1227 51.365 26.9392C51.4371 26.7557 51.5343 26.5941 51.6566 26.4543C51.7812 26.3145 51.9264 26.2053 52.0924 26.1266C52.2606 26.048 52.4463 26.0087 52.6494 26.0087C52.8264 26.0087 52.9847 26.0327 53.1245 26.0807C53.2643 26.1288 53.3834 26.2053 53.4817 26.3101C53.5799 26.4149 53.6542 26.5493 53.7045 26.7131C53.7569 26.8769 53.7831 27.0768 53.7831 27.3127V29.6194H53.3899V27.3094C53.3899 27.0648 53.3561 26.8737 53.2883 26.736C53.2206 26.5962 53.1245 26.4969 53 26.4379C52.8755 26.3789 52.7281 26.3494 52.5577 26.3494C52.3698 26.3494 52.2049 26.3909 52.0629 26.4739C51.9231 26.5547 51.8052 26.6607 51.7091 26.7917C51.6151 26.9206 51.5431 27.0593 51.4928 27.2079C51.4426 27.3542 51.4153 27.494 51.4109 27.6273Z" fill="black"/>
<path d="M59.2703 26.0742V26.3953H57.4945V26.0742H59.2703ZM58.1465 25.1633H58.5364V28.7576C58.5364 28.9215 58.5582 29.0449 58.6019 29.1279C58.6456 29.2109 58.7024 29.2666 58.7723 29.295C58.8422 29.3234 58.9176 29.3376 58.9984 29.3376C59.0574 29.3376 59.1142 29.3343 59.1688 29.3277C59.2234 29.319 59.2725 29.3103 59.3162 29.3015L59.3326 29.6325C59.2845 29.6478 59.2223 29.6598 59.1458 29.6685C59.0694 29.6794 58.9929 29.6849 58.9165 29.6849C58.7658 29.6849 58.6325 29.6576 58.5167 29.603C58.401 29.5462 58.3103 29.4501 58.2448 29.3146C58.1793 29.177 58.1465 28.9903 58.1465 28.7544V25.1633Z" fill="black"/>
<path d="M70.7854 28.4464C70.7854 28.3153 70.7636 28.1985 70.7199 28.0958C70.6762 27.9931 70.6041 27.9014 70.5037 27.8206C70.4054 27.7376 70.2721 27.6611 70.1039 27.5912C69.9379 27.5191 69.7304 27.4481 69.4814 27.3782C69.2433 27.3105 69.0281 27.2363 68.8359 27.1554C68.6437 27.0746 68.4788 26.9818 68.3412 26.8769C68.2057 26.7721 68.102 26.6498 68.0299 26.51C67.9578 26.368 67.9218 26.2031 67.9218 26.0152C67.9218 25.8317 67.9611 25.6646 68.0397 25.5139C68.1184 25.3632 68.2287 25.2332 68.3707 25.124C68.5148 25.0148 68.6841 24.9307 68.8785 24.8717C69.0751 24.8127 69.2903 24.7833 69.524 24.7833C69.8582 24.7833 70.1465 24.8466 70.389 24.9733C70.6336 25.1 70.8226 25.2715 70.9558 25.4877C71.0912 25.7018 71.159 25.942 71.159 26.2085H70.7559C70.7559 26.001 70.7068 25.8164 70.6085 25.6548C70.5124 25.491 70.3726 25.3632 70.1891 25.2715C70.0078 25.1775 69.7861 25.1306 69.524 25.1306C69.2619 25.1306 69.0413 25.171 68.8621 25.2518C68.6852 25.3304 68.5509 25.4364 68.4591 25.5696C68.3696 25.7007 68.3248 25.847 68.3248 26.0087C68.3248 26.1223 68.3466 26.2271 68.3903 26.3232C68.434 26.4171 68.505 26.5056 68.6033 26.5886C68.7038 26.6694 68.8359 26.7459 68.9997 26.818C69.1636 26.8879 69.3656 26.9545 69.6059 27.0178C69.8593 27.0877 70.0843 27.1653 70.2809 27.2505C70.4774 27.3356 70.6435 27.4339 70.7789 27.5453C70.9143 27.6546 71.017 27.7823 71.0869 27.9287C71.1568 28.075 71.1917 28.2454 71.1917 28.4398C71.1917 28.6342 71.1502 28.809 71.0672 28.9641C70.9864 29.117 70.8717 29.2469 70.7232 29.354C70.5768 29.461 70.4032 29.5429 70.2022 29.5997C70.0034 29.6565 69.7861 29.6849 69.5502 29.6849C69.3383 29.6849 69.1275 29.6576 68.9178 29.603C68.7081 29.5484 68.5159 29.4643 68.3412 29.3507C68.1686 29.2349 68.0299 29.0864 67.9251 28.9051C67.8224 28.7238 67.7711 28.5075 67.7711 28.2563H68.1708C68.1708 28.4573 68.2112 28.6266 68.292 28.7642C68.3728 28.9018 68.4799 29.0132 68.6131 29.0984C68.7486 29.1836 68.8971 29.2458 69.0587 29.2852C69.2225 29.3223 69.3864 29.3409 69.5502 29.3409C69.8014 29.3409 70.0187 29.3037 70.2022 29.2295C70.3879 29.1552 70.531 29.0514 70.6314 28.9182C70.7341 28.7828 70.7854 28.6255 70.7854 28.4464Z" fill="black"/>
<path d="M74.8867 27.9025V27.7944C74.8867 27.5366 74.9239 27.2985 74.9981 27.0801C75.0724 26.8616 75.1783 26.6727 75.3159 26.5132C75.4557 26.3538 75.6228 26.2304 75.8172 26.143C76.0117 26.0534 76.2279 26.0087 76.466 26.0087C76.7063 26.0087 76.9236 26.0534 77.118 26.143C77.3124 26.2304 77.4795 26.3538 77.6193 26.5132C77.7591 26.6727 77.8661 26.8616 77.9404 27.0801C78.0147 27.2985 78.0518 27.5366 78.0518 27.7944V27.9025C78.0518 28.1602 78.0147 28.3983 77.9404 28.6167C77.8661 28.833 77.7591 29.0208 77.6193 29.1803C77.4817 29.3398 77.3157 29.4643 77.1213 29.5538C76.9269 29.6412 76.7106 29.6849 76.4725 29.6849C76.2323 29.6849 76.0149 29.6412 75.8205 29.5538C75.6261 29.4643 75.459 29.3398 75.3192 29.1803C75.1794 29.0208 75.0724 28.833 74.9981 28.6167C74.9239 28.3983 74.8867 28.1602 74.8867 27.9025ZM75.2766 27.7944V27.9025C75.2766 28.0969 75.3028 28.2815 75.3553 28.4562C75.4077 28.6288 75.4841 28.7828 75.5846 28.9182C75.6851 29.0514 75.8096 29.1563 75.9581 29.2327C76.1067 29.3092 76.2781 29.3474 76.4725 29.3474C76.6648 29.3474 76.834 29.3092 76.9804 29.2327C77.1289 29.1563 77.2534 29.0514 77.3539 28.9182C77.4544 28.7828 77.5298 28.6288 77.58 28.4562C77.6324 28.2815 77.6586 28.0969 77.6586 27.9025V27.7944C77.6586 27.6021 77.6324 27.4197 77.58 27.2472C77.5298 27.0746 77.4533 26.9206 77.3506 26.7852C77.2502 26.6498 77.1257 26.5427 76.9771 26.4641C76.8286 26.3855 76.6582 26.3461 76.466 26.3461C76.2738 26.3461 76.1034 26.3855 75.9549 26.4641C75.8085 26.5427 75.684 26.6498 75.5813 26.7852C75.4809 26.9206 75.4044 27.0746 75.352 27.2472C75.3017 27.4197 75.2766 27.6021 75.2766 27.7944Z" fill="black"/>
<path d="M82.4316 24.5867V29.6194H82.0417V24.5867H82.4316Z" fill="black"/>
<path d="M88.9051 28.8002V26.0742H89.2982V29.6194H88.9214L88.9051 28.8002ZM88.9771 28.1449L89.1803 28.1384C89.1803 28.3612 89.1541 28.5665 89.1017 28.7544C89.0492 28.9422 88.9673 29.106 88.8559 29.2458C88.7445 29.3856 88.6003 29.4938 88.4234 29.5702C88.2465 29.6467 88.0335 29.6849 87.7845 29.6849C87.6119 29.6849 87.4536 29.6609 87.3094 29.6128C87.1674 29.5626 87.0451 29.4839 86.9425 29.3769C86.8398 29.2699 86.7601 29.1312 86.7033 28.9608C86.6487 28.7904 86.6214 28.584 86.6214 28.3415V26.0742H87.0113V28.3481C87.0113 28.5381 87.032 28.6965 87.0735 28.8232C87.1172 28.9499 87.1762 29.0514 87.2504 29.1279C87.3269 29.2043 87.4143 29.2589 87.5126 29.2917C87.6109 29.3245 87.7168 29.3409 87.8304 29.3409C88.1187 29.3409 88.3459 29.2852 88.5119 29.1738C88.6801 29.0624 88.7991 28.916 88.869 28.7347C88.9411 28.5512 88.9771 28.3546 88.9771 28.1449Z" fill="black"/>
<path d="M94.7953 26.0742V26.3953H93.0195V26.0742H94.7953ZM93.6715 25.1633H94.0614V28.7576C94.0614 28.9215 94.0832 29.0449 94.1269 29.1279C94.1706 29.2109 94.2274 29.2666 94.2973 29.295C94.3672 29.3234 94.4426 29.3376 94.5234 29.3376C94.5824 29.3376 94.6391 29.3343 94.6937 29.3277C94.7484 29.319 94.7975 29.3103 94.8412 29.3015L94.8576 29.6325C94.8095 29.6478 94.7473 29.6598 94.6708 29.6685C94.5944 29.6794 94.5179 29.6849 94.4415 29.6849C94.2907 29.6849 94.1575 29.6576 94.0417 29.603C93.926 29.5462 93.8353 29.4501 93.7698 29.3146C93.7042 29.177 93.6715 28.9903 93.6715 28.7544V25.1633Z" fill="black"/>
<path d="M99.1849 26.0742V29.6194H98.795V26.0742H99.1849ZM98.7262 25.0487C98.7262 24.9744 98.7492 24.9121 98.795 24.8619C98.8431 24.8095 98.9086 24.7833 98.9916 24.7833C99.0746 24.7833 99.1402 24.8095 99.1882 24.8619C99.2385 24.9121 99.2636 24.9744 99.2636 25.0487C99.2636 25.1207 99.2385 25.183 99.1882 25.2354C99.1402 25.2857 99.0746 25.3108 98.9916 25.3108C98.9086 25.3108 98.8431 25.2857 98.795 25.2354C98.7492 25.183 98.7262 25.1207 98.7262 25.0487Z" fill="black"/>
<path d="M103.172 27.9025V27.7944C103.172 27.5366 103.209 27.2985 103.283 27.0801C103.357 26.8616 103.463 26.6727 103.601 26.5132C103.741 26.3538 103.908 26.2304 104.102 26.143C104.296 26.0534 104.513 26.0087 104.751 26.0087C104.991 26.0087 105.208 26.0534 105.403 26.143C105.597 26.2304 105.764 26.3538 105.904 26.5132C106.044 26.6727 106.151 26.8616 106.225 27.0801C106.299 27.2985 106.337 27.5366 106.337 27.7944V27.9025C106.337 28.1602 106.299 28.3983 106.225 28.6167C106.151 28.833 106.044 29.0208 105.904 29.1803C105.767 29.3398 105.601 29.4643 105.406 29.5538C105.212 29.6412 104.995 29.6849 104.757 29.6849C104.517 29.6849 104.3 29.6412 104.105 29.5538C103.911 29.4643 103.744 29.3398 103.604 29.1803C103.464 29.0208 103.357 28.833 103.283 28.6167C103.209 28.3983 103.172 28.1602 103.172 27.9025ZM103.561 27.7944V27.9025C103.561 28.0969 103.588 28.2815 103.64 28.4562C103.693 28.6288 103.769 28.7828 103.869 28.9182C103.97 29.0514 104.094 29.1563 104.243 29.2327C104.391 29.3092 104.563 29.3474 104.757 29.3474C104.95 29.3474 105.119 29.3092 105.265 29.2327C105.414 29.1563 105.538 29.0514 105.639 28.9182C105.739 28.7828 105.815 28.6288 105.865 28.4562C105.917 28.2815 105.943 28.0969 105.943 27.9025V27.7944C105.943 27.6021 105.917 27.4197 105.865 27.2472C105.815 27.0746 105.738 26.9206 105.635 26.7852C105.535 26.6498 105.41 26.5427 105.262 26.4641C105.113 26.3855 104.943 26.3461 104.751 26.3461C104.559 26.3461 104.388 26.3855 104.24 26.4641C104.093 26.5427 103.969 26.6498 103.866 26.7852C103.766 26.9206 103.689 27.0746 103.637 27.2472C103.587 27.4197 103.561 27.6021 103.561 27.7944Z" fill="black"/>
<path d="M110.671 26.8311V29.6194H110.281V26.0742H110.654L110.671 26.8311ZM110.582 27.6273L110.408 27.529C110.422 27.3193 110.464 27.1227 110.536 26.9392C110.608 26.7557 110.706 26.5941 110.828 26.4543C110.952 26.3145 111.098 26.2053 111.264 26.1266C111.432 26.048 111.617 26.0087 111.821 26.0087C111.998 26.0087 112.156 26.0327 112.296 26.0807C112.435 26.1288 112.555 26.2053 112.653 26.3101C112.751 26.4149 112.825 26.5493 112.876 26.7131C112.928 26.8769 112.954 27.0768 112.954 27.3127V29.6194H112.561V27.3094C112.561 27.0648 112.527 26.8737 112.46 26.736C112.392 26.5962 112.296 26.4969 112.171 26.4379C112.047 26.3789 111.899 26.3494 111.729 26.3494C111.541 26.3494 111.376 26.3909 111.234 26.4739C111.094 26.5547 110.976 26.6607 110.88 26.7917C110.786 26.9206 110.714 27.0593 110.664 27.2079C110.614 27.3542 110.586 27.494 110.582 27.6273Z" fill="black"/>
<path d="M119.225 28.715C119.225 28.6189 119.201 28.5239 119.153 28.43C119.104 28.3361 119.012 28.2498 118.874 28.1711C118.739 28.0925 118.539 28.0259 118.274 27.9713C118.078 27.9276 117.902 27.8784 117.747 27.8238C117.594 27.7692 117.465 27.7037 117.36 27.6273C117.255 27.5508 117.176 27.4591 117.121 27.352C117.066 27.245 117.039 27.1183 117.039 26.972C117.039 26.8409 117.068 26.7175 117.124 26.6017C117.183 26.4838 117.266 26.3811 117.373 26.2937C117.483 26.2042 117.614 26.1343 117.767 26.084C117.922 26.0338 118.095 26.0087 118.288 26.0087C118.561 26.0087 118.794 26.0556 118.989 26.1496C119.185 26.2413 119.335 26.3669 119.438 26.5264C119.542 26.6858 119.595 26.866 119.595 27.067H119.205C119.205 26.9446 119.169 26.8289 119.097 26.7197C119.027 26.6104 118.923 26.5209 118.786 26.451C118.65 26.3811 118.484 26.3461 118.288 26.3461C118.084 26.3461 117.919 26.3767 117.793 26.4379C117.666 26.499 117.573 26.5766 117.514 26.6705C117.457 26.7644 117.429 26.8616 117.429 26.9621C117.429 27.0408 117.441 27.1128 117.465 27.1784C117.491 27.2417 117.537 27.3007 117.603 27.3553C117.67 27.4099 117.767 27.4612 117.891 27.5093C118.016 27.5574 118.177 27.6043 118.376 27.6502C118.662 27.7135 118.896 27.7911 119.077 27.8828C119.261 27.9724 119.396 28.0838 119.483 28.217C119.571 28.3481 119.614 28.5075 119.614 28.6954C119.614 28.8417 119.584 28.9761 119.523 29.0984C119.462 29.2185 119.373 29.3223 119.257 29.4097C119.144 29.497 119.006 29.5647 118.845 29.6128C118.685 29.6609 118.506 29.6849 118.307 29.6849C118.008 29.6849 117.755 29.6357 117.547 29.5374C117.342 29.437 117.186 29.3059 117.078 29.1443C116.974 28.9804 116.921 28.8068 116.921 28.6233H117.311C117.324 28.8068 117.382 28.952 117.485 29.0591C117.587 29.1639 117.713 29.2382 117.862 29.2819C118.012 29.3256 118.161 29.3474 118.307 29.3474C118.508 29.3474 118.676 29.3179 118.812 29.2589C118.947 29.2 119.05 29.1224 119.12 29.0263C119.19 28.9302 119.225 28.8264 119.225 28.715Z" fill="black"/>
</svg>
