<svg width="1280" height="649" viewBox="0 0 1280 649" fill="none" xmlns="http://www.w3.org/2000/svg">
<rect y="-87" width="1280" height="736" fill="#F6F6F6"/>
<rect y="-87" width="1280" height="736" fill="#1A2541"/>
<path d="M681.115 576.021C681.216 577.699 681.116 579.383 680.818 581.039C679.695 586.161 674.946 589.679 670.349 592.347C665.752 595.016 660.701 597.542 657.967 602.046C654.672 607.488 655.722 614.805 659.589 619.889C663.457 624.973 669.586 628 675.895 629.263C687.402 631.595 700.003 628.32 708.63 620.49C717.257 612.66 721.585 600.425 719.469 589.061C714.788 589.706 710.617 585.648 709.102 581.248C707.586 576.848 707.9 572.079 707.311 567.463C707.268 566.683 707.029 565.925 706.615 565.258C705.958 564.365 704.796 564.001 703.713 563.709C698.302 562.247 689.198 559.049 683.59 560.273C678.539 561.409 681.031 571.852 681.115 576.021Z" fill="#BE6F72"/>
<path opacity="0.1" d="M681.115 576.021C681.216 577.699 681.116 579.383 680.818 581.039C679.695 586.161 674.946 589.679 670.349 592.347C665.752 595.016 660.701 597.542 657.967 602.046C654.672 607.488 655.722 614.805 659.589 619.889C663.457 624.973 669.586 628 675.895 629.263C687.402 631.595 700.003 628.32 708.63 620.49C717.257 612.66 721.585 600.425 719.469 589.061C714.788 589.706 710.617 585.648 709.102 581.248C707.586 576.848 707.9 572.079 707.311 567.463C707.268 566.683 707.029 565.925 706.615 565.258C705.958 564.365 704.796 564.001 703.713 563.709C698.302 562.247 689.198 559.049 683.59 560.273C678.539 561.409 681.031 571.852 681.115 576.021Z" fill="black"/>
<path d="M748.551 550.56C752.725 543.901 758.441 537.354 758.084 529.57C757.953 526.795 757.023 524.082 756.314 521.363C754.283 513.495 754.149 505.272 755.923 497.344C762.936 496.241 770.113 497.814 775.975 501.738C777.829 502.992 779.587 504.551 780.404 506.61C781.158 508.507 781.033 510.621 780.897 512.652C780.585 517.318 780.16 522.295 777.223 525.969C776.31 527.117 775.187 528.088 774.296 529.248C772.998 530.912 772.238 532.943 771.495 534.924L761.855 560.586C756.989 573.52 751.715 587.047 740.997 595.997C740.736 596.213 733.058 585.543 732.423 584.472C729.854 580.084 730.977 578.23 734.085 574.557C740.215 567.294 743.543 558.533 748.551 550.56Z" fill="#BE6F72"/>
<circle cx="699.5" cy="551.5" r="20.5" fill="#BE6F72"/>
<path d="M700.524 601.348C703.332 596.563 705.793 590.59 711.196 589.261C714.246 588.504 717.42 589.536 720.391 590.551C721.252 590.754 722.034 591.207 722.638 591.852C723.077 592.548 723.312 593.352 723.318 594.174C724.258 604.062 724.226 614.018 723.222 623.9C722.509 630.894 721.307 637.854 721.093 644.882C720.796 654.624 722.402 664.367 721.874 674.098C721.475 681.473 719.858 688.719 718.251 695.926L711.511 726.101C711.39 727.035 711.015 727.917 710.427 728.653C709.858 729.173 709.178 729.557 708.438 729.775C688.708 736.739 666.948 735.037 648.544 725.091C646.112 723.757 643.685 722.214 642.101 719.937C639.855 716.707 639.647 712.433 640.377 708.563C641.107 704.693 642.686 701.042 643.747 697.244C645.387 691.355 645.775 685.208 646.146 679.106C646.64 671.074 647.134 662.992 646.275 654.989C645.685 649.476 644.455 644.046 643.528 638.578C642.163 630.336 641.371 622.01 641.158 613.659C641.017 608.673 641.248 603.137 644.702 599.542C646.387 597.792 648.634 596.737 650.92 595.885C654.756 594.471 659.042 593.641 662.918 594.931C666.794 596.221 669.917 600.282 669.001 604.259C668.58 606.104 667.383 607.719 667.091 609.592C666.704 612.071 668.018 614.567 669.9 616.244C680.022 625.375 695.474 610.007 700.524 601.348Z" fill="#E3E8F4"/>
<path d="M704.909 580.471C707.927 579.348 711.207 579.154 714.334 579.914C716.324 580.393 718.475 581.24 720.311 580.343C720.979 580.02 721.53 579.491 722.203 579.19C724.023 578.382 726.383 579.374 727.993 578.199C729.008 577.458 729.339 576.11 729.681 574.884C731.337 569.034 734.73 563.839 739.403 560C738.824 564.273 738.405 569.135 741.201 572.4C742.475 573.881 744.261 574.812 746.07 575.536C748.667 576.578 751.519 577.268 754.259 576.7C757 576.132 759.564 574.037 760 571.247C759.906 575.441 755.952 578.371 754.844 582.421C754.425 583.936 754.463 585.546 754.171 587.094C753.427 591.049 750.631 594.225 748.188 597.411C740.385 607.659 735.401 619.808 733.739 632.627C733.626 634.148 733.311 635.647 732.802 637.083C732.262 638.185 731.65 639.249 730.971 640.27C726.929 647.166 728.175 655.867 729.548 663.743C731.694 676.082 733.833 688.17 737.307 700.196C737.903 702.252 738.576 704.396 740.092 705.895C739.613 710.758 734.754 712.975 730.387 715.075C726.074 717.152 722.096 719.873 718.585 723.146C717.328 724.316 716.087 725.631 715.63 727.296C715.199 728.861 715.508 730.583 714.957 732.103C714.405 733.624 712.199 734.716 711.229 733.435C710.016 728.85 712.089 724.054 711.995 719.308C711.929 716.105 710.892 712.991 710.744 709.788C710.6 706.162 711.659 702.602 712.784 699.16C715.916 689.573 719.699 680.076 720.786 670.043C721.872 660.011 719.843 649.054 712.795 641.896C704.429 633.362 699.786 621.793 690.819 613.955C689.397 612.713 687.786 611.17 688.023 609.287C688.187 608.458 688.549 607.681 689.077 607.025C692.154 602.636 696.246 599.054 699.554 594.854C702.863 590.654 705.51 585.819 704.909 580.471Z" fill="#518FEC"/>
<path d="M671.462 586.243C670.928 586.809 670.559 587.589 669.939 588.075C669.214 588.548 668.388 588.819 667.538 588.862C664.392 589.367 661.219 589.667 658.038 589.761C655.365 589.761 652.59 589.512 650.018 590.287C646.431 591.361 643.565 594.359 641.769 597.809C639.972 601.259 639.122 605.161 638.433 609.046C636.912 617.607 636.098 626.291 636 635C640.407 631.282 644.334 626.97 647.682 622.173C650.248 618.491 652.574 614.419 656.236 611.959C657.92 610.828 659.813 610.081 661.508 608.979C665.041 606.677 667.49 602.955 669.843 599.364C671.575 596.7 676.584 591.497 676.98 588.307C677.317 585.259 673.334 583.771 671.462 586.243Z" fill="#518FEC"/>
<path d="M691.707 536.383C692.431 536.813 693.125 537.291 693.784 537.815C697.767 540.563 703.1 540.053 707.916 539.427C709.395 539.241 710.914 539.032 712.182 538.267C714.217 537.026 715.174 534.475 714.974 532.115C714.775 529.755 713.572 527.581 712.105 525.737C708.179 520.807 702.38 517.68 696.06 517.087C694.44 516.877 692.794 517.05 691.255 517.591C689.36 518.362 687.934 519.951 686.186 521.012C681.029 524.143 673.086 522.751 669.759 527.749C667.325 531.437 669.061 536.446 667.911 540.685C667.055 543.85 664.585 546.732 665.06 549.962C665.324 551.701 666.427 553.22 667.307 554.774C669.328 558.346 670.263 562.419 670 566.503C672.259 568.081 675.409 565.628 676.037 562.972C676.665 560.317 675.943 557.487 676.477 554.809C677.421 550.107 681.622 546.657 683.517 542.343C684.878 539.253 687.096 534.034 691.707 536.383Z" fill="#333333"/>
<path d="M641.834 586.911C641.667 587.939 641.562 589.073 642.122 589.943C643.231 591.636 645.77 591.026 647.766 591.28C650.876 591.67 653.171 594.667 653.775 597.817C654.38 600.967 653.659 604.173 652.872 607.267C651.09 614.277 648.969 621.189 646.507 628C639.888 627.204 632.919 624.613 629.404 618.861C626.211 613.628 626.538 606.962 624.509 601.159C623.084 597.072 620.528 593.516 618 590.027C622.064 590.547 624.969 585.816 625.207 581.65C625.446 577.484 624.159 573.256 625.035 569.186C625.24 568.221 641.257 571.264 642.815 572.365C647.317 575.543 642.543 582.497 641.834 586.911Z" fill="#FBBEBE"/>
<path opacity="0.1" d="M641.834 586.911C641.667 587.939 641.562 589.073 642.122 589.943C643.231 591.636 645.77 591.026 647.766 591.28C650.876 591.67 653.171 594.667 653.775 597.817C654.38 600.967 653.659 604.173 652.872 607.267C651.09 614.277 648.969 621.189 646.507 628C639.888 627.204 632.919 624.613 629.404 618.861C626.211 613.628 626.538 606.962 624.509 601.159C623.084 597.072 620.528 593.516 618 590.027C622.064 590.547 624.969 585.816 625.207 581.65C625.446 577.484 624.159 573.256 625.035 569.186C625.24 568.221 641.257 571.264 642.815 572.365C647.317 575.543 642.543 582.497 641.834 586.911Z" fill="black"/>
<circle cx="635.5" cy="555.5" r="20.5" fill="#FBBEBE"/>
<path d="M629.621 586.672C630.399 585.412 629.073 583.653 629.681 582.296C630.043 581.479 630.958 581.127 631.665 580.594C632.551 579.847 633.259 578.897 633.731 577.819C637.058 571.197 638.065 563.586 636.58 556.282C636.076 553.83 635.627 550.573 637.791 549.472C638.391 549.195 639.049 549.077 639.704 549.131C643.605 549.262 647.375 551.969 651.162 551.01C653.808 550.265 655.73 547.896 655.984 545.068C656.231 541.402 653.578 538.258 650.97 535.789C646.274 531.317 639.117 530.324 632.739 530.216L620.875 530.012C617.078 529.944 612.82 530.069 610.179 532.889C606.376 536.947 608.288 543.587 607.74 549.211C607.274 553.699 605.106 557.813 601.713 560.646C599.252 562.678 595.866 564.619 595.91 567.865C595.91 569 596.381 570.033 596.682 571.105C597.893 575.35 596.737 580.043 594.414 583.76C592.09 587.478 588.693 590.338 585.169 592.841C583.284 594.174 581.333 595.457 579.843 597.267C578.209 599.358 577.238 601.921 577.065 604.605C576.83 606.656 577.237 608.731 578.226 610.524C580.544 614.36 586.106 614.922 589.915 612.697C593.723 610.473 596.047 606.262 597.586 602.028C598.507 599.514 599.444 596.637 601.8 595.508C604.781 594.072 608.266 596.342 610.206 599.094C612.146 601.847 613.341 605.206 615.823 607.442C619.714 610.95 626.333 610.382 629.621 606.262C631.972 603.305 632.492 599.214 632.361 595.383C632.295 592.263 631.342 589.233 629.621 586.672Z" fill="#333333"/>
<path d="M636.26 612.763C633.767 613.296 631.162 612.119 629.307 610.359C627.452 608.6 626.203 606.331 624.903 604.134C621.607 598.594 617.829 593.355 613.613 588.479C609.937 584.237 604.821 579.928 599.364 581.239C597.537 581.767 595.841 582.674 594.388 583.901C584.607 591.646 579.492 603.874 580.845 616.276C581.271 619.846 582.241 623.337 582.644 626.923C582.916 629.878 582.994 632.849 582.879 635.815C582.728 644.847 582.42 654.401 577.551 662.01C570.003 673.777 565.964 687.83 560.422 700.673C557.43 707.615 555.637 715.006 553.878 722.357C552.835 726.72 551.795 731.081 550.757 735.441L543.977 763.961C543.277 766.903 542.576 769.985 543.316 772.926C544.436 777.319 548.566 780.39 552.92 781.639C557.273 782.889 561.885 782.676 566.406 782.715C575.057 782.799 583.776 783.875 591.895 786.878C594.215 787.736 596.529 788.761 599 788.963C601.471 789.165 603.93 788.52 606.244 787.624C612.559 785.181 617.972 780.9 623.788 777.443C627.421 775.253 631.247 773.402 635.218 771.912C637.213 771.167 639.353 770.461 640.726 768.83C641.763 767.603 642.228 766.001 642.569 764.432C644.463 755.601 643.191 746.451 642.569 737.441C641.948 728.431 636.563 718.911 641.017 711.055C641.914 709.47 642.984 707.946 643.444 706.186C644.049 703.889 643.539 701.418 644.049 699.098C644.424 697.383 645.326 695.843 645.943 694.201C647.018 691.31 647.164 688.16 647.153 685.073C647.128 678.294 646.414 671.536 645.024 664.901C643.259 656.497 649.097 648.187 652.442 640.247C653.641 637.406 655.339 634.722 655.838 631.68C656.286 628.934 655.709 626.138 655.277 623.387C654.633 619.123 654.371 614.81 654.493 610.5C654.599 606.633 655.008 602.694 654.084 598.934C653.159 595.175 650.52 591.527 646.727 590.754C645.866 590.501 644.937 590.647 644.194 591.151C643.757 591.581 643.448 592.124 643.304 592.72C642.071 596.497 642.312 600.565 641.623 604.487C640.933 608.409 640.127 611.934 636.26 612.763Z" fill="#AC58D4"/>
<path d="M584.533 636.301C584.794 634.861 583.972 632.949 582.188 633.001C580.543 633.053 579.81 634.731 579.817 636.077C579.823 637.423 580.046 638.966 578.88 639.912C577.847 640.748 576.139 640.722 574.941 641.403C574.083 641.902 573.576 642.711 573.583 643.57C573.583 644.292 573.985 644.983 574.01 645.706C574.036 646.428 573.443 647.264 572.563 647.218C571.634 648.489 571.873 650.11 573.143 651.167C573.602 651.53 574.201 651.842 574.354 652.351C574.403 652.708 574.368 653.07 574.252 653.417C573.985 654.845 575.196 656.446 576.961 656.602C575.973 657.179 576.171 658.53 577.076 659.2C577.981 659.87 579.281 660 580.499 660C583.261 659.988 585.994 659.527 588.536 658.644C589.406 658.41 590.176 657.977 590.754 657.397C591.307 656.779 591.229 655.925 590.569 655.381C591.805 655.547 593.29 655.64 594.1 654.861C595.228 653.77 594.017 652.154 592.825 651.099C593.836 650.977 594.659 650.374 594.917 649.569C595.175 648.763 594.819 647.909 594.011 647.399C593.603 647.155 593.048 646.942 592.991 646.532C592.934 646.121 593.361 645.856 593.539 645.492C593.947 644.677 593.016 643.845 592.118 643.352C589.989 642.198 586.853 642.219 584.96 641.055C583.067 639.891 584.259 637.859 584.533 636.301Z" fill="#BE6F72"/>
<path d="M701.064 553.002C699.737 553.134 698.401 553.164 697.07 553.094C696.597 553.043 696.171 553.373 696.111 553.836L693.563 572.6C693.367 573.962 692.8 575.246 691.92 576.317C690.454 578.039 689.782 580.281 690.063 582.509V614.382C690.063 614.382 689.898 618.632 693.224 618.632C697.204 619.123 701.231 619.123 705.211 618.632C705.211 618.632 707.873 618.137 707.873 614.215V582.831C708.284 580.615 707.684 578.334 706.23 576.591C705.38 575.517 704.83 574.243 704.636 572.896L701.989 553.739C701.927 553.292 701.522 552.97 701.064 553.002Z" fill="#3F3D56"/>
<path opacity="0.1" d="M701.064 553.002C699.737 553.134 698.401 553.164 697.07 553.094C696.597 553.043 696.171 553.373 696.111 553.836L693.563 572.6C693.367 573.962 692.8 575.246 691.92 576.317C690.454 578.039 689.782 580.281 690.063 582.509V614.382C690.063 614.382 689.898 618.632 693.224 618.632C697.204 619.123 701.231 619.123 705.211 618.632C705.211 618.632 707.873 618.137 707.873 614.215V582.831C708.284 580.615 707.684 578.334 706.23 576.591C705.38 575.517 704.83 574.243 704.636 572.896L701.989 553.739C701.927 553.292 701.522 552.97 701.064 553.002Z" fill="black"/>
<rect x="690" y="581" width="14" height="27" rx="7" fill="#E6E6E6"/>
<path d="M755.382 476.102C754.182 476.754 752.931 477.312 751.642 477.769C751.177 477.906 750.906 478.383 751.03 478.847L756.162 497.74C756.529 499.112 756.514 500.556 756.118 501.919C755.418 504.133 755.683 506.536 756.848 508.549L769.662 538.934C769.662 538.934 771.212 543.046 774.363 541.746C778.329 540.657 782.14 539.078 785.706 537.045C785.706 537.045 788.026 535.533 786.453 531.799L773.835 501.88C773.332 499.607 771.849 497.666 769.775 496.568C768.54 495.876 767.508 494.879 766.782 493.673L756.578 476.446C756.338 476.032 755.809 475.88 755.382 476.102Z" fill="#3F3D56"/>
<path d="M762.313 516.701C760.758 512.968 762.52 508.681 766.25 507.12C769.99 505.554 774.291 507.321 775.849 511.064L782.393 526.776C783.947 530.509 782.186 534.796 778.456 536.358C774.716 537.924 770.415 536.156 768.856 532.413L762.313 516.701Z" fill="#E6E6E6"/>
<path d="M600.381 583.978C594.363 586.49 591.984 594.305 593.395 600.737C594.805 607.168 599.054 612.527 603.197 617.626L614.806 631.975C618.014 635.945 621.524 640.124 626.416 641.508C633.57 643.533 640.724 638.916 646.91 634.742C665.373 622.277 685.109 611.865 705.776 603.686C707.797 602.892 709.868 602.086 711.531 600.669C714.979 597.731 715.947 592.315 714.027 588.191C712.107 584.068 707.635 581.386 703.128 581.352C698.622 581.318 694.239 583.734 691.53 587.386C690.237 589.127 689.291 591.118 688.042 592.887C684.885 597.334 679.959 600.084 675.139 602.568C663.518 608.576 651.555 613.878 639.313 618.448C637.074 619.276 634.55 620.065 632.439 618.97C631.146 618.295 630.273 617.019 629.489 615.771C625.918 610.076 623.078 603.943 621.037 597.521C619.508 592.7 618.271 587.448 614.599 584.023C609.393 579.168 599.967 580.331 596.065 586.291C596.065 586.291 591.492 593.069 594.29 595.905C597.089 598.74 600.381 583.978 600.381 583.978Z" fill="#FBBEBE"/>
<path d="M911.22 564.115C912.077 566.267 912.101 568.622 911.978 570.917C911.825 573.716 911.08 577.001 908.321 578.068C906.524 578.748 904.305 578.234 902.709 579.262C900.772 580.501 900.865 583.167 901.165 585.346C901.993 591.335 902.926 597.545 906.389 602.611C908.25 605.326 910.768 607.588 913.322 609.75C918.411 614.075 923.994 618.3 930.68 619.743C931.769 620.033 932.915 620.078 934.026 619.876C935.122 619.557 936.116 618.987 936.92 618.217C940.794 614.866 942.79 610.082 945.373 605.747C947.199 602.644 949.376 599.663 950.404 596.246C952.13 590.154 950.041 583.668 945.015 579.506C943.87 578.582 942.602 577.808 941.493 576.851C938.593 574.374 936.902 570.818 936.21 567.19C935.517 563.562 935.623 559.829 935.957 556.13C930.087 555.704 924.258 556.373 918.529 557.451C915.981 557.933 912.394 558.154 910.087 559.299C907.493 560.598 910.51 562.263 911.22 564.115Z" fill="#FBBEBE"/>
<path opacity="0.1" d="M911.22 564.115C912.077 566.267 912.101 568.622 911.978 570.917C911.825 573.716 911.08 577.001 908.321 578.068C906.524 578.748 904.305 578.234 902.709 579.262C900.772 580.501 900.865 583.167 901.165 585.346C901.993 591.335 902.926 597.545 906.389 602.611C908.25 605.326 910.768 607.588 913.322 609.75C918.411 614.075 923.994 618.3 930.68 619.743C931.769 620.033 932.915 620.078 934.026 619.876C935.122 619.557 936.116 618.987 936.92 618.217C940.794 614.866 942.79 610.082 945.373 605.747C947.199 602.644 949.376 599.663 950.404 596.246C952.13 590.154 950.041 583.668 945.015 579.506C943.87 578.582 942.602 577.808 941.493 576.851C938.593 574.374 936.902 570.818 936.21 567.19C935.517 563.562 935.623 559.829 935.957 556.13C930.087 555.704 924.258 556.373 918.529 557.451C915.981 557.933 912.394 558.154 910.087 559.299C907.493 560.598 910.51 562.263 911.22 564.115Z" fill="black"/>
<path d="M875.847 579.412C867.029 576.292 862.815 564.103 853.584 562.736C852.129 562.517 850.635 562.601 849.207 562.254C843.891 560.954 841.605 554.613 840.069 549.207C834.888 531.186 828.122 513.552 818.511 497.576C814.455 490.854 808.042 485.33 805.115 477.969C804.442 476.289 804.1 474.373 802.889 473.045C801.678 471.718 799.088 471.527 798.431 473.219C798.248 473.818 798.207 474.454 798.311 475.073L798.947 482.048L787.902 481.022C786.88 480.843 785.832 480.919 784.845 481.246C783.779 481.797 782.93 482.709 782.439 483.829C778.704 491.072 782.684 500.561 789.276 505.144C796.976 510.493 807.972 511.306 813.087 519.288C816.127 524.039 816.187 530.15 818.191 535.455C819.147 537.993 820.542 540.323 821.655 542.782C823.778 547.471 824.864 552.568 826.51 557.453C828.866 564.439 832.358 570.948 835.839 577.418C838.521 582.415 841.269 587.501 845.395 591.322C848.11 593.831 851.303 595.691 854.496 597.484C862.348 601.909 871.606 606.166 879.925 602.772C880.403 595.12 878.54 586.588 875.847 579.412Z" fill="#FBBEBE"/>
<circle cx="918" cy="538" r="25" fill="#FBBEBE"/>
<path d="M939.111 581.805C937.354 585.638 934.588 589.471 930.471 590.446C926.686 591.35 922.675 589.537 919.886 586.837C917.098 584.138 915.274 580.633 913.34 577.276C911.93 574.823 910.359 572.348 907.974 570.804C904.712 568.701 900.502 568.756 896.656 569.375C892.81 569.993 888.991 571.1 885.084 570.848C880.219 570.525 875.26 568.11 870.67 569.72C872.158 576.335 871.623 583.607 871.452 590.386C871.481 591.433 871.332 592.477 871.012 593.474C870.611 594.404 870.07 595.268 869.408 596.037L865 601.683C869.728 605.198 873.816 609.787 875.469 615.422C876.4 618.631 876.114 622.037 876.081 625.377C875.976 635.184 878.12 644.954 877.442 654.739C876.648 666.2 872.042 677.032 869.667 688.274C867.633 697.925 867.249 707.847 868.532 717.625C893.228 726.118 918.674 730.466 944.781 731.889C949.393 732.141 954.374 732.18 958.16 729.546C961.306 727.355 963.069 723.604 963.67 719.826C964.271 716.048 963.857 712.203 963.439 708.403C962.303 698.127 961.17 687.85 960.039 677.574C959.394 671.725 958.749 665.844 959.168 659.979C959.482 655.599 960.386 651.3 961.284 647.012L966.794 620.695C967.582 616.955 968.376 613.188 969.935 609.699C971.213 606.852 972.982 604.224 974.393 601.453C976.074 598.13 977.234 594.572 977.831 590.901C978.07 589.835 978.055 588.729 977.787 587.67C977.197 585.874 975.396 584.795 973.715 583.913C963.467 578.561 952.484 574.733 941.117 572.551C940.346 575.776 940.494 578.799 939.111 581.805Z" fill="#E3E8F4"/>
<path d="M936.792 566.949C939.669 561.531 945.048 557.731 948.173 552.437C951.677 546.346 951.939 538.958 948.874 532.642C947.776 530.437 946.285 528.412 945.422 526.104C944.462 523.48 944.37 520.59 943.259 518.023C941.734 514.505 938.432 511.971 934.836 510.512C931.24 509.053 927.357 508.527 923.484 508.018L910.413 506.287C908.52 506.038 906.558 505.79 904.717 506.287C902.875 506.785 901.161 508.261 901.011 510.139C900.833 512.361 902.818 514.431 902.358 516.614C902.191 517.384 901.731 518.164 901.995 518.911C902.231 519.409 902.639 519.81 903.146 520.042C906.247 521.738 909.952 521.891 913.312 523C916.672 524.108 920.044 526.891 919.704 530.352C919.52 532.213 918.301 534.147 919.129 535.815C919.923 537.359 922.006 537.642 923.669 538.123C929.048 539.655 932.822 545.39 932.04 550.848C931.798 552.544 931.177 554.167 931.05 555.87C930.63 561.831 931.585 563.533 936.539 567L936.792 566.949Z" fill="#333333"/>
<path d="M970.549 590.012C970.575 591.153 970.37 592.288 969.946 593.346C968.188 597.15 962.807 596.909 959.24 599.066C954.8 601.754 953.819 607.754 953.413 612.981C952.951 618.901 952.636 624.907 953.83 630.712C955.025 636.517 957.899 642.179 962.7 645.583C968.543 649.706 976.488 649.849 983.16 647.339C989.831 644.828 995.404 639.972 1000.24 634.664C1004.83 629.631 1008.93 624.02 1011.4 617.631C1011.83 616.487 1012.21 615.275 1011.86 614.131C1011.34 612.415 1009.5 611.637 1008 610.699C1004.5 608.554 1002.17 604.814 1000.95 600.862C999.743 596.909 999.54 592.706 999.501 588.559C999.456 584.252 999.445 579.545 996.74 576.222C994.035 572.899 989.347 571.967 985.076 572.001C981.582 572.001 971.913 572.338 969.529 575.433C967.574 578.006 970.69 586.328 970.549 590.012Z" fill="#BE6F72"/>
<path opacity="0.1" d="M970.549 590.012C970.575 591.153 970.37 592.288 969.946 593.346C968.188 597.15 962.807 596.909 959.24 599.066C954.8 601.754 953.819 607.754 953.413 612.981C952.951 618.901 952.636 624.907 953.83 630.712C955.025 636.517 957.899 642.179 962.7 645.583C968.543 649.706 976.488 649.849 983.16 647.339C989.831 644.828 995.404 639.972 1000.24 634.664C1004.83 629.631 1008.93 624.02 1011.4 617.631C1011.83 616.487 1012.21 615.275 1011.86 614.131C1011.34 612.415 1009.5 611.637 1008 610.699C1004.5 608.554 1002.17 604.814 1000.95 600.862C999.743 596.909 999.54 592.706 999.501 588.559C999.456 584.252 999.445 579.545 996.74 576.222C994.035 572.899 989.347 571.967 985.076 572.001C981.582 572.001 971.913 572.338 969.529 575.433C967.574 578.006 970.69 586.328 970.549 590.012Z" fill="black"/>
<path d="M891.154 553.217C879.847 541.965 866.996 532.429 853.849 523.512C850.428 521.308 847.137 518.898 843.993 516.295C840.708 513.482 837.844 510.179 834.357 507.648C830.869 505.116 826.554 503.378 822.365 504.21C818.177 505.043 814.453 509.161 815.066 513.471C815.614 517.262 818.932 519.861 821.998 522.039C827.802 526.162 833.634 530.297 839.947 533.532C842.14 534.553 844.267 535.718 846.315 537.02C850.246 539.743 853.11 543.771 856.083 547.557C867.305 561.879 881.051 573.902 896.602 582.999C896.788 583.112 903.265 568.749 902.992 566.887C902.389 562.606 894.132 556.187 891.154 553.217Z" fill="#BE6F72"/>
<path d="M992.414 613.215C993.775 609.625 997.386 607.416 1001.19 607.846C1003.43 608.161 1005.42 609.389 1007.34 610.59L1018.01 617.277C1019.78 618.334 1021.48 619.507 1023.09 620.789C1030.46 626.916 1033.29 636.986 1034.11 646.552C1034.92 656.117 1034.11 665.845 1036 675.254C1031.49 679.001 1026.5 682.171 1021.99 685.913C1019.63 687.871 1017.25 689.84 1015.46 692.359C1014.04 694.34 1013.03 696.606 1011.55 698.531C1009.12 701.572 1005.6 703.535 1001.75 703.995C1004.19 705.42 1005.56 708.186 1006.22 710.941C1006.88 713.695 1007.06 716.551 1007.79 719.305C1008.8 723.047 1010.88 726.464 1011.57 730.279C1012.05 732.91 1011.84 735.609 1012.01 738.279C1012.88 752.097 1023.69 764.176 1022.99 778C1017.89 776.14 1013.06 773.594 1008.65 770.432C1006.66 769.001 1004.73 767.453 1002.85 765.91L988.613 754.325C981.688 748.714 974.696 742.981 969.19 735.934C965.736 731.513 962.919 726.621 959.454 722.212C955.988 717.802 951.724 713.796 946.43 711.945C945.653 713.117 944.273 713.931 943.496 715.103C943.359 715.288 943.25 715.492 943.172 715.709C943.077 716.232 943.142 716.772 943.356 717.258C943.981 719.527 944.355 721.858 944.474 724.209L944.826 728.428C944.958 729.546 944.958 730.676 944.826 731.794C944.295 735.401 940.964 738.201 937.37 738.762C936.85 738.875 936.311 738.857 935.799 738.711C934.799 738.375 934.246 737.314 933.944 736.305C932.53 731.513 934.698 726.459 934.872 721.471C934.896 720.205 934.853 718.939 934.743 717.678L934.408 712.702C931.16 712.023 929.293 708.523 928.433 705.308C926.107 696.629 923.765 687.647 925.113 678.76C925.47 676.381 926.096 673.969 925.671 671.59C925.113 668.409 922.832 665.828 921.63 662.833C917.718 653.065 926.029 642.462 925.258 631.976C924.934 627.572 922.15 623.746 920.473 619.662C919.605 617.281 918.481 615.003 917.12 612.868C915.409 610.416 913.101 608.452 910.86 606.477C903.938 600.381 897.372 593.889 891.196 587.032C888.024 586.702 885.049 585.334 882.728 583.139C881.253 581.736 880.04 579.885 880.001 577.848C879.962 575.812 881.46 573.674 883.489 573.568C884.673 573.506 885.78 574.095 886.937 574.353C890.559 575.15 894.203 572.474 895.819 569.113C897.434 565.753 897.434 561.887 897.406 558.162C901.006 557.52 904.678 558.812 907.092 561.567C909.591 564.294 911.217 567.694 913.185 570.824C913.986 572.215 915.013 573.461 916.225 574.51C918.914 576.653 922.787 577.057 925.135 579.559C926.325 580.839 926.985 582.533 928.075 583.902C931.138 587.756 936.744 588.227 940.93 590.763C945.117 593.299 948.029 597.933 952.668 599.437C954.345 599.998 956.173 600.071 957.833 600.693C961.667 602.124 964.009 606.214 964.54 610.281C965.071 614.349 964.165 618.461 963.249 622.467L961.097 631.841C960.622 633.917 960.258 636.414 961.784 637.895C962.505 638.494 963.352 638.921 964.26 639.146C968.173 640.425 972.533 641.682 976.211 639.87C977.949 639.006 979.313 637.547 980.559 636.055C986.014 629.603 989.642 621.154 992.414 613.215Z" fill="#FFB500"/>
<circle cx="984.5" cy="564.5" r="29.5" fill="#BE6F72"/>
<path d="M1007.79 617.455C1008.41 616.577 1009.14 615.631 1010.18 615.447C1010.97 615.386 1011.76 615.555 1012.46 615.933L1019.85 619.071C1021.85 615.719 1023.03 611.929 1023.29 608.018C1023.44 605.619 1023.25 603.185 1023.7 600.825C1024.38 597.323 1026.42 594.185 1026.89 590.65C1027.27 587.797 1026.59 584.927 1026.18 582.08C1024.93 573.287 1026.27 564.315 1025.55 555.46C1024.83 546.605 1021.34 537.118 1013.57 533.051C1011.37 531.932 1008.99 531.261 1006.71 530.377C1001.6 528.403 997.03 525.242 991.99 523.106C986.949 520.969 981.027 519.99 976.14 522.445C971.253 524.901 968.408 531.809 971.584 536.318C972.629 537.8 974.159 538.852 975.623 539.92C978.6 542.085 981.638 544.759 982.326 548.417C983.559 555.001 976.823 560.164 974.924 566.602C974.223 569.117 974.161 571.771 974.742 574.316C975.562 578.131 977.566 581.733 977.494 585.638C977.439 589.917 974.919 593.793 974.445 598.05C974.275 599.611 974.379 601.194 974.187 602.749C973.847 604.8 973.25 606.799 972.409 608.695C968.006 619.883 963.543 631.188 957 641.245C964.005 641.366 970.931 639.721 977.158 636.457C976.263 640.769 974.549 644.861 972.112 648.506C977.711 647.847 983.097 645.937 987.884 642.912C986.723 647.14 985.04 651.201 982.876 655C983.063 654.676 986.525 653.881 987.163 653.512C988.475 652.754 989.531 651.609 990.19 650.229C992.061 646.828 993.228 642.727 994.961 639.192C998.668 631.614 1002.96 624.346 1007.79 617.455Z" fill="#333333"/>
<path d="M796.064 447.002C794.737 447.134 793.401 447.164 792.07 447.094C791.597 447.043 791.171 447.373 791.111 447.836L788.563 466.6C788.367 467.962 787.8 469.246 786.92 470.317C785.454 472.039 784.782 474.281 785.063 476.509V508.382C785.063 508.382 784.898 512.632 788.224 512.632C792.204 513.123 796.231 513.123 800.211 512.632C800.211 512.632 802.873 512.137 802.873 508.215V476.831C803.284 474.615 802.684 472.334 801.23 470.591C800.38 469.517 799.83 468.243 799.636 466.896L796.989 447.739C796.927 447.292 796.522 446.97 796.064 447.002Z" fill="#3F3D56"/>
<rect x="787" y="474" width="14" height="34" rx="7" fill="#E6E6E6"/>
<path d="M832.064 478.002C830.737 478.134 829.401 478.164 828.07 478.094C827.597 478.043 827.171 478.373 827.111 478.836L824.563 497.6C824.367 498.962 823.8 500.246 822.92 501.317C821.454 503.039 820.782 505.281 821.063 507.509V539.382C821.063 539.382 820.898 543.632 824.224 543.632C828.204 544.123 832.231 544.123 836.211 543.632C836.211 543.632 838.873 543.137 838.873 539.215V507.831C839.284 505.615 838.684 503.334 837.23 501.591C836.38 500.517 835.83 499.243 835.636 497.896L832.989 478.739C832.927 478.292 832.522 477.97 832.064 478.002Z" fill="#3F3D56"/>
<rect x="823" y="509" width="14" height="31" rx="7" fill="#E6E6E6"/>
<circle cx="5.5" cy="280.5" r="8.5" fill="#FF843E"/>
<path fill-rule="evenodd" clip-rule="evenodd" d="M213 13L232.96 54L264 37.0063L238.5 19.3658L213 13Z" fill="#518FEC"/>
<path fill-rule="evenodd" clip-rule="evenodd" d="M1244.96 491L1240 473.963L1244.96 469L1251 484.963L1244.96 491Z" fill="#518FEC"/>
<path fill-rule="evenodd" clip-rule="evenodd" d="M1035 30L1045.18 51L1061 42.2959L1048 33.2605L1035 30Z" fill="#518FEC"/>
<path d="M1120.74 99C1120.74 99 1113.79 111.191 1134.63 112.318C1155.47 113.444 1138.11 130 1138.11 130" stroke="#AC58D4" stroke-width="5"/>
<path d="M642.8 17.1161C642.8 17.1161 616.685 21.0337 648.594 55.7171C680.502 90.4005 632.363 83.0466 632.363 83.0466" stroke="#AC58D4" stroke-width="5"/>
<path d="M47.7998 18.1161C47.7998 18.1161 21.6849 22.0337 53.5936 56.7171C85.5022 91.4005 37.3628 84.0466 37.3628 84.0466" stroke="#AC58D4" stroke-width="5"/>
<path d="M1145.47 562C1145.47 562 1123.6 600.54 1189.21 604.1C1254.82 607.661 1200.15 660 1200.15 660" stroke="#AC58D4" stroke-width="5"/>
<path d="M462 323.947C462 323.947 490.708 340.158 493.361 291.526C496.013 242.895 535 283.421 535 283.421" stroke="#AC58D4" stroke-width="5"/>
<circle cx="875.5" cy="48.5" r="15.5" fill="#FF843E"/>
<circle cx="891.5" cy="138.5" r="8.5" fill="#FF843E"/>
<circle cx="1266.5" cy="127.5" r="25.5" fill="#FF843E"/>
<circle cx="1278" cy="548" r="11" fill="#FFB500"/>
<path fill-rule="evenodd" clip-rule="evenodd" d="M793 123L818.793 80H840L818.793 123H793Z" fill="#518FEC"/>
<path fill-rule="evenodd" clip-rule="evenodd" d="M1018.96 157L1014 139.963L1018.96 135L1025 150.963L1018.96 157Z" fill="#518FEC"/>
<path fill-rule="evenodd" clip-rule="evenodd" d="M735.5 74.5L723.5 67.3659V61.5L735.5 67.3659V74.5Z" fill="#518FEC"/>
<path fill-rule="evenodd" clip-rule="evenodd" d="M338 88L355.012 57H369L355.012 88H338Z" fill="#518FEC"/>
<path fill-rule="evenodd" clip-rule="evenodd" d="M40 644L57.0121 613H71L57.0121 644H40Z" fill="#518FEC"/>
<circle cx="496" cy="34" r="49" fill="#FF843E"/>
<circle cx="394.5" cy="644.5" r="25.5" fill="#FF843E"/>
<circle cx="1173" cy="53" r="8" fill="#FFB500"/>
<path fill-rule="evenodd" clip-rule="evenodd" d="M1240.45 -18.097L1262.28 39.1543L1298.73 -16.4956C1298.73 -16.4956 1278.21 -16.3554 1268 -16.6394C1257.79 -16.9234 1240.45 -18.097 1240.45 -18.097Z" fill="#FFCDCD"/>
<mask id="mask0_23_73" style="mask-type:alpha" maskUnits="userSpaceOnUse" x="1240" y="-19" width="59" height="59">
<path fill-rule="evenodd" clip-rule="evenodd" d="M1240.45 -18.097L1262.28 39.1543L1298.73 -16.4956C1298.73 -16.4956 1278.21 -16.3554 1268 -16.6394C1257.79 -16.9234 1240.45 -18.097 1240.45 -18.097Z" fill="white"/>
</mask>
<g mask="url(#mask0_23_73)">
<path fill-rule="evenodd" clip-rule="evenodd" d="M1262.28 39.1542L1292.73 -24.1648L1313.05 -20.25L1262.28 39.1542Z" fill="black" fill-opacity="0.15"/>
</g>
<path fill-rule="evenodd" clip-rule="evenodd" d="M1162.29 -26.6836L1178.51 33.863L1223.24 -18.8346C1223.24 -18.8346 1201.83 -20.7116 1190.89 -22.12C1179.95 -23.5284 1162.29 -26.6836 1162.29 -26.6836Z" fill="#518FEC"/>
<mask id="mask1_23_73" style="mask-type:alpha" maskUnits="userSpaceOnUse" x="1162" y="-27" width="62" height="61">
<path fill-rule="evenodd" clip-rule="evenodd" d="M1162.29 -26.6836L1178.51 33.863L1223.24 -18.8346C1223.24 -18.8346 1201.83 -20.7116 1190.89 -22.12C1179.95 -23.5284 1162.29 -26.6836 1162.29 -26.6836Z" fill="white"/>
</mask>
<g mask="url(#mask1_23_73)">
<path fill-rule="evenodd" clip-rule="evenodd" d="M1178.51 33.863L1216.25 -28.4939L1233.37 -23.3785L1178.51 33.863Z" fill="black" fill-opacity="0.15"/>
</g>
<path fill-rule="evenodd" clip-rule="evenodd" d="M1079.6 -48.9097L1088.17 24.4602L1146.98 -29.1318C1146.98 -29.1318 1121.56 -34.6758 1109.3 -38.2753C1097.03 -41.8748 1079.6 -48.9097 1079.6 -48.9097Z" fill="#FFB500"/>
<mask id="mask2_23_73" style="mask-type:alpha" maskUnits="userSpaceOnUse" x="1079" y="-49" width="68" height="74">
<path fill-rule="evenodd" clip-rule="evenodd" d="M1079.6 -48.9097L1088.17 24.4602L1146.98 -29.1318C1146.98 -29.1318 1121.56 -34.6758 1109.3 -38.2753C1097.03 -41.8748 1079.6 -48.9097 1079.6 -48.9097Z" fill="white"/>
</mask>
<g mask="url(#mask2_23_73)">
<path fill-rule="evenodd" clip-rule="evenodd" d="M1088.17 24.4601L1134.79 -41.6982L1156.33 -32.1246L1088.17 24.4601Z" fill="black" fill-opacity="0.15"/>
</g>
<path d="M990.195 -99.1993C990.195 -99.1993 1104.22 -8.44137 1322.94 -16.5014" stroke="white"/>
</svg>
