<svg width="14" height="14" viewBox="0 0 14 14" fill="none" xmlns="http://www.w3.org/2000/svg">
<path fill-rule="evenodd" clip-rule="evenodd" d="M11.4716 1.4H12.2363C13.0776 1.4 13.7659 2.03 13.7659 2.8V12.6C13.7659 13.37 13.0776 14 12.2363 14H1.52954C0.688294 14 0 13.37 0 12.6V2.8C0 2.03 0.688294 1.4 1.52954 1.4H2.29431V0.7C2.29431 0.28 2.60022 0 3.05909 0C3.51795 0 3.82386 0.28 3.82386 0.7V1.4H9.94203V0.7C9.94203 0.28 10.2479 0 10.7068 0C11.1657 0 11.4716 0.28 11.4716 0.7V1.4ZM11.4716 12.6C11.9304 12.6 12.2363 12.32 12.2363 11.9V5.6C12.2363 5.18 11.9304 4.9 11.4716 4.9H2.29431C1.83545 4.9 1.52954 5.18 1.52954 5.6V11.9C1.52954 12.32 1.83545 12.6 2.29431 12.6H11.4716Z" fill="#B6B6B6"/>
</svg>
