<svg width="16" height="16" viewBox="0 0 16 16" fill="none" xmlns="http://www.w3.org/2000/svg">
<path d="M3.00001 5.75326C2.99891 5.55419 3.07343 5.36286 3.20709 5.22153C3.34117 5.07975 3.52369 5 3.71409 5C3.90449 5 4.087 5.07975 4.22108 5.22153L7.99855 9.19077L11.776 5.22153C12.056 4.92786 12.51 4.92786 12.79 5.22153C13.07 5.51519 13.07 5.99132 12.79 6.28499L8.50554 10.7785C8.37146 10.9203 8.18894 11 7.99855 11C7.80815 11 7.62563 10.9203 7.49155 10.7785L3.20709 6.28499C3.07343 6.14365 2.99891 5.95232 3.00001 5.75326Z" fill="#AE1E40"/>
</svg>
