<svg width="42" height="42" viewBox="0 0 42 42" fill="none" xmlns="http://www.w3.org/2000/svg">
<g filter="url(#filter0_d_23_315)">
<circle cx="21" cy="19" r="17" fill="white"/>
<path fill-rule="evenodd" clip-rule="evenodd" d="M25.5543 10.0004C28.4006 10.0004 30.675 12.3824 30.9669 15.6656C30.9896 15.8106 31.0843 16.5739 30.7965 17.8181C30.3819 19.6138 29.4242 21.2463 28.0275 22.5397L20.9402 29L13.9724 22.5393C12.5758 21.2463 11.618 19.6134 11.2034 17.8181C10.9157 16.5735 11.0103 15.8102 11.0334 15.6652C11.3249 12.382 13.5997 10 16.4456 10C18.3115 10 19.9766 11.0214 20.9448 12.7141C21.9218 11.043 23.658 10.0004 25.5543 10.0004ZM14.0766 16.3188C14.0766 14.5852 15.4571 13.1747 17.1538 13.1747C17.3661 13.1747 17.5384 12.999 17.5384 12.7817C17.5384 12.5644 17.3665 12.3887 17.1538 12.3887C15.0329 12.3887 13.3074 14.1517 13.3074 16.3188C13.3074 16.5361 13.4793 16.7118 13.692 16.7118C13.9047 16.7118 14.0766 16.5361 14.0766 16.3188Z" fill="#93999D"/>
</g>
<defs>
<filter id="filter0_d_23_315" x="0" y="0" width="42" height="42" filterUnits="userSpaceOnUse" color-interpolation-filters="sRGB">
<feFlood flood-opacity="0" result="BackgroundImageFix"/>
<feColorMatrix in="SourceAlpha" type="matrix" values="0 0 0 0 0 0 0 0 0 0 0 0 0 0 0 0 0 0 127 0" result="hardAlpha"/>
<feOffset dy="2"/>
<feGaussianBlur stdDeviation="2"/>
<feColorMatrix type="matrix" values="0 0 0 0 0 0 0 0 0 0 0 0 0 0 0 0 0 0 0.15 0"/>
<feBlend mode="normal" in2="BackgroundImageFix" result="effect1_dropShadow_23_315"/>
<feBlend mode="normal" in="SourceGraphic" in2="effect1_dropShadow_23_315" result="shape"/>
</filter>
</defs>
</svg>
