<svg width="14" height="14" viewBox="0 0 14 14" fill="none" xmlns="http://www.w3.org/2000/svg">
<path fill-rule="evenodd" clip-rule="evenodd" d="M9.65692 9.03045H10.3125L13.7542 12.5336C14.0819 12.8594 14.0819 13.4297 13.7542 13.7556C13.4264 14.0815 12.8528 14.0815 12.525 13.7556L9.08331 10.2525V9.60073L8.83748 9.35633C6.8708 11.0672 3.83884 11.0672 1.87216 9.35633C-0.340346 7.40109 -0.668125 4.06091 1.29855 1.86127C3.26523 -0.338365 6.62497 -0.664237 8.83748 1.29099C11.05 3.24623 11.2958 6.58641 9.41109 8.78605L9.65692 9.03045ZM1.70828 5.36439C1.70828 7.40109 3.34717 9.03045 5.39579 9.03045C7.44441 9.03045 9.08331 7.40109 9.08331 5.36439C9.08331 3.32769 7.44441 1.69833 5.39579 1.69833C3.34717 1.69833 1.70828 3.32769 1.70828 5.36439Z" fill="#B6B6B6"/>
</svg>
